<?xml version="1.0" encoding="UTF-8" standalone="no"?>
<!DOCTYPE svg PUBLIC "-//W3C//DTD SVG 1.1//EN" "http://www.w3.org/Graphics/SVG/1.1/DTD/svg11.dtd">
<svg width="100%" height="100%" viewBox="0 0 173 100" version="1.1" xmlns="http://www.w3.org/2000/svg" xmlns:xlink="http://www.w3.org/1999/xlink" xml:space="preserve" xmlns:serif="http://www.serif.com/" style="fill-rule:evenodd;clip-rule:evenodd;stroke-linejoin:round;stroke-miterlimit:2;">
    <g transform="matrix(5.40625,0,0,5.386434,0,-36.149948)">
        <path d="M32,24.795C30.836,25.091 30.116,24.808 29.47,23.838L24.876,17.482L24.212,16.602L18.847,23.859C18.234,24.732 17.591,25.112 16.447,24.803L23.317,15.581L16.921,7.251C18.021,7.037 18.781,7.146 19.456,8.131L24.221,14.566L29.021,8.166C29.636,7.293 30.297,6.961 31.401,7.283L28.921,10.571L25.561,14.946C25.161,15.446 25.216,15.788 25.584,16.271L32,24.795ZM0.008,15.427L0.57,12.663C2.1,7.193 8.37,4.92 12.694,8.3C15.221,10.288 15.849,13.1 15.724,16.25L1.48,16.25C1.266,21.92 5.347,25.342 10.55,23.596C12.375,22.983 13.45,21.554 13.988,19.766C14.261,18.87 14.713,18.73 15.555,18.986C15.125,21.222 14.155,23.09 12.105,24.259C9.042,26.009 4.67,25.443 2.37,23.011C1,21.6 0.434,19.812 0.18,17.9C0.14,17.584 0.06,17.283 0,16.98C0.005,16.463 0.008,15.945 0.008,15.428L0.008,15.427ZM1.506,15.047L14.378,15.047C14.294,10.947 11.741,8.035 8.252,8.01C4.422,7.98 1.672,10.823 1.506,15.047Z" style="fill:white;fill-rule:nonzero;"/>
    </g>
</svg>
