<svg xmlns="http://www.w3.org/2000/svg" viewBox="0 0 118 118" fill="none">
  <rect width="118" height="118" rx="24" fill="#333"/>
  <path d="M59 28C42 28 29 41 29 58c0 13 8 24 20 28 1 0 2-1 2-2v-7c-8 2-10-4-10-4-1-3-3-4-3-4-2-2 0-2 0-2 2 0 4 1 5 3 1 2 4 3 6 3 2 0 5-1 6-2 1-2 3-5 6-7-10-1-20-5-20-15 0-3 1-6 3-8 0-1-1-3-1-6 0-2 1-4 2-5 6 0 10 4 12 6 2-1 5-1 8-1 3 0 6 0 8 1 2-2 6-6 12-6 1 1 2 3 2 5 0 3-1 5-1 6 2 2 3 5 3 8 0 10-10 14-20 15 2 2 4 5 4 8v7c0 1 1 2 2 2 12-4 20-15 20-28 0-17-13-30-30-30z" fill="white"/>
</svg>